# xmcd
#
# Track frame offsets:
#	150
#	11954
#	21515
#	31581
#	44364
#	54364
#	65037
#	74530
#	83099
#	99727
#	108816
#	118171
#	130335
#	142506
#	156907
#	170415
#	180396
#	194827
#	206732
#	218186
#	231510
#	244798
#	257271
#	269307
#	279504
#
# Disc length: 3876 seconds
#
# Revision: 1
# Processed by: cddbd v1.5.2PL0 Copyright (c) Steve Scherf et al.
# Submitted via: audiograbber 1.83.01
#
DISCID=6f0f2219
DTITLE=Nancy Wilson - How Glad I Am - Gentle Is My Love
DYEAR=1964
DGENRE=R&B
TTITLE0=How Glad I Am
TTITLE1=The Grass Is Greener
TTITLE2=Boy From Ipanema
TTITLE3=The Show Goes On
TTITLE4=Don't Rain On My Parade
TTITLE5=Never Less Than Yesterday
TTITLE6=I Wanna Be With You
TTITLE7=It's Time To Go
TTITLE8=People
TTITLE9=West Coast Blues
TTITLE10=Quiet Nights
TTITLE11=Who Can I Turn To
TTITLE12=There Will Never Be Another You
TTITLE13=If Love Is Good To Me
TTITLE14=My One an Only Love
TTITLE15=Funnier Than Funny
TTITLE16=More (Theme From Mondo Cane)
TTITLE17=Gentle Is My Love
TTITLE18=At Long Last Love
TTITLE19=Time After Time
TTITLE20=If Ever I Would Leave You
TTITLE21=When He Makes Music
TTITLE22=Save Your Love For Me
TTITLE23=Such A Night
TTITLE24=Something's Going On
EXTD=
EXTT0=
EXTT1=
EXTT2=
EXTT3=
EXTT4=
EXTT5=
EXTT6=
EXTT7=
EXTT8=
EXTT9=
EXTT10=
EXTT11=
EXTT12=
EXTT13=
EXTT14=
EXTT15=
EXTT16=
EXTT17=
EXTT18=
EXTT19=
EXTT20=
EXTT21=
EXTT22=
EXTT23=
EXTT24=
PLAYORDER=
